<?xml version="1.0" standalone="no"?>
<!DOCTYPE svg PUBLIC "-//W3C//DTD SVG 20010904//EN"
 "http://www.w3.org/TR/2001/REC-SVG-20010904/DTD/svg10.dtd">
<svg version="1.0" xmlns="http://www.w3.org/2000/svg"
 width="1280.000000pt" height="640.000000pt" viewBox="0 0 1280.000000 640.000000"
 preserveAspectRatio="xMidYMid meet">
<metadata>
Created by potrace 1.15, written by Peter Selinger 2001-2017
</metadata>
<g transform="translate(0.000000,640.000000) scale(0.100000,-0.100000)"
fill="#000000" stroke="none">
<path d="M6650 5761 c-4649 -666 -5786 -825 -5830 -816 -39 8 -278 -40 -309
-62 -14 -11 -37 -39 -50 -63 -22 -39 -29 -91 -87 -669 -35 -344 -78 -761 -94
-926 -17 -165 -44 -428 -60 -585 -16 -157 -43 -420 -60 -585 -109 -1077 -160
-1583 -160 -1604 0 -22 2 -23 48 -17 26 4 94 18 152 32 99 24 342 76 995 214
154 33 557 118 895 190 338 72 741 157 895 190 154 33 388 82 519 110 l240 51
605 -6 c1007 -8 3940 -50 3945 -56 4 -4 -63 -714 -79 -841 l-6 -48 56 0 c66 0
215 31 317 66 40 14 177 47 303 74 127 26 615 130 1085 230 470 100 1024 217
1230 261 206 44 508 107 670 140 162 33 313 64 335 70 30 7 584 128 591 129 1
0 0 262 -3 583 l-4 582 -25 82 c-127 425 -866 1775 -1438 2628 -243 362 -404
561 -513 631 -231 148 -636 263 -1231 350 -322 46 -63 76 -2932 -335z m2960
-82 c497 -78 876 -160 986 -214 74 -36 174 -159 373 -457 314 -472 895 -1467
1284 -2203 171 -324 216 -421 228 -500 6 -38 13 -240 16 -447 l6 -377 -34 -5
c-19 -3 -156 -17 -305 -31 -254 -23 -308 -25 -862 -25 l-592 0 6 138 c4 75 7
138 8 139 1 1 67 5 148 9 l147 7 -4 -134 c-3 -83 -1 -122 4 -104 5 17 9 76 10
132 l1 102 33 5 c17 3 85 7 150 11 l117 5 1 -127 c2 -108 3 -119 9 -68 4 33 8
90 9 127 l1 66 118 6 c64 4 140 8 169 11 l52 5 -4 -122 c-3 -77 -1 -112 4 -93
5 17 9 72 10 123 l1 92 43 0 c24 0 86 3 137 7 l92 6 -7 -114 c-4 -63 -4 -111
0 -107 5 5 12 53 16 109 4 56 10 103 13 106 3 3 76 9 162 14 86 4 159 11 163
15 3 4 -69 4 -161 0 -135 -6 -168 -4 -168 6 0 10 28 390 30 406 0 1 46 2 103
3 56 0 122 4 147 9 32 6 2 8 -103 6 l-148 -2 7 90 c3 50 11 168 18 261 l11
170 38 3 c48 4 49 22 1 22 l-36 0 4 65 c5 83 -7 85 -16 3 -3 -34 -8 -64 -11
-67 -3 -2 -68 -7 -146 -9 l-140 -5 6 74 c7 99 25 479 25 546 l0 53 -181 0
-181 0 6 158 c4 86 9 199 12 250 6 91 6 92 32 93 l27 2 -27 4 c-26 4 -28 8
-29 56 -1 56 -4 54 -14 -7 l-6 -39 -136 6 c-75 3 -137 8 -139 10 -2 2 2 125
10 273 7 148 11 272 7 276 -3 4 -70 13 -149 20 -78 6 -146 15 -152 18 -7 4 -6
77 1 219 6 118 7 216 3 220 -5 5 -82 16 -172 26 l-163 19 3 103 c2 57 0 103
-3 103 -7 0 -19 -103 -19 -161 0 -45 9 -43 -135 -26 l-100 13 1 87 c0 48 -2
87 -6 87 -4 0 -11 -39 -15 -86 l-7 -86 -33 5 c-19 3 -86 11 -150 18 l-116 13
6 106 c4 58 8 111 10 118 3 6 0 12 -5 12 -6 0 -10 -10 -11 -22 -2 -59 -16
-199 -21 -203 -5 -6 -259 22 -265 29 -2 2 0 52 5 112 6 60 8 111 6 113 -10 10
-14 -12 -19 -104 -4 -55 -8 -105 -10 -111 -2 -7 -45 -5 -142 7 -125 16 -155
17 -142 5 2 -2 65 -12 139 -21 74 -9 137 -19 139 -20 3 -4 -29 -458 -33 -462
-1 -1 -64 5 -141 12 -160 17 -191 18 -181 8 4 -4 78 -14 164 -23 l157 -15 -3
-45 c-2 -25 -12 -160 -22 -300 -11 -140 -20 -258 -20 -261 0 -3 -46 -4 -102
-2 -74 3 -99 1 -88 -6 8 -6 54 -11 103 -11 l87 0 -6 -67 c-3 -38 -13 -169 -23
-293 l-16 -225 -160 -5 -160 -6 158 -2 157 -2 0 -27 c0 -16 -11 -172 -25 -348
-14 -176 -25 -330 -25 -342 0 -22 -3 -23 -107 -24 -60 -1 -119 -5 -133 -9 -16
-5 23 -8 105 -8 121 0 130 -1 128 -18 -1 -11 -10 -128 -19 -260 l-17 -241 -90
-7 c-50 -3 -119 -6 -154 -6 -34 0 -63 -4 -63 -8 0 -5 68 -7 150 -4 l150 5 0
-37 c0 -58 -30 -420 -36 -425 -2 -3 -46 -7 -97 -9 -50 -2 -96 -8 -102 -14 -6
-6 28 -7 97 -2 l107 7 -5 -74 c-3 -41 -7 -89 -10 -107 l-5 -32 -194 0 -195 0
5 42 c3 24 14 178 25 343 25 374 110 1642 200 2965 22 327 46 678 52 778 l11
184 46 -7 c25 -3 161 -24 301 -46z m-870 -25 c0 -8 -18 -198 -40 -422 -22
-224 -49 -497 -60 -607 -11 -110 -44 -450 -74 -755 -100 -1016 -176 -1781
-209 -2115 l-32 -330 -2275 4 c-1251 2 -2278 6 -2282 10 -4 3 -8 186 -10 406
l-3 400 -48 120 c-169 417 -684 1346 -1084 1954 -157 239 -236 344 -314 424
-32 31 -56 57 -55 57 2 0 272 36 602 80 329 44 1033 139 1564 210 2176 292
3243 435 3755 504 297 41 546 74 553 75 6 0 12 -6 12 -15z m1186 -576 c7 -7
-24 -439 -31 -447 -5 -4 -268 17 -271 22 -1 1 30 396 35 458 1 7 258 -25 267
-33z m194 -19 c63 -6 118 -15 121 -18 8 -7 -26 -430 -35 -438 -2 -3 -68 0
-145 7 l-141 13 0 39 c0 49 19 317 26 377 5 41 7 43 32 38 15 -3 79 -11 142
-18z m278 -33 c57 -8 105 -16 107 -18 3 -3 -16 -430 -19 -435 -1 -1 -59 3
-129 10 l-127 11 0 31 c0 16 7 102 15 190 8 88 15 175 15 193 0 38 -6 37 138
18z m286 -36 c88 -11 162 -22 164 -25 2 -2 1 -99 -3 -215 -6 -185 -9 -210 -24
-210 -30 1 -314 29 -316 32 -1 2 1 71 6 153 4 83 8 180 8 218 1 37 2 67 4 67
1 0 74 -9 161 -20z m-8937 -350 c280 -23 366 -43 414 -98 152 -173 885 -1443
1247 -2163 100 -196 104 -207 113 -294 5 -49 8 -220 7 -380 l-3 -290 -140 -13
c-77 -7 -612 -57 -1190 -112 -577 -55 -1179 -112 -1337 -126 -158 -15 -289
-26 -292 -23 -2 2 5 123 15 269 25 359 53 777 89 1315 17 248 44 648 60 890
17 242 37 546 45 675 9 129 18 253 21 275 l5 41 152 21 c176 24 577 30 794 13z
m8101 -27 l53 -6 -5 -36 c-3 -20 -13 -155 -23 -300 l-17 -263 -135 7 c-75 4
-138 9 -140 11 -4 3 20 362 36 538 l6 69 86 -7 c47 -3 110 -9 139 -13z m251
-23 c58 -6 106 -12 108 -13 3 -4 -33 -470 -42 -542 l-5 -40 -141 7 c-78 4
-143 8 -144 10 -2 2 6 137 18 301 l21 298 40 -6 c23 -3 88 -10 145 -15z m316
-28 l70 -7 -3 -70 c-2 -38 -7 -153 -13 -255 -5 -102 -9 -200 -9 -217 l0 -33
-137 6 c-76 4 -140 8 -141 10 -4 3 38 553 44 571 2 9 20 11 61 7 32 -3 90 -9
128 -12z m248 -23 c67 -5 133 -12 146 -15 l24 -5 -7 -177 c-3 -97 -9 -222 -12
-277 l-7 -100 -165 8 c-91 4 -166 8 -167 10 -1 1 4 110 11 242 7 132 13 259
13 283 1 49 -11 47 164 31z m373 -35 c51 -3 97 -9 103 -13 8 -5 7 -80 -1 -275
l-12 -269 -90 7 c-49 3 -116 6 -149 6 l-60 0 7 178 c3 97 9 224 13 281 l6 103
46 -5 c25 -4 87 -9 137 -13z m-1228 -510 c39 -5 42 -7 42 -37 0 -46 -30 -467
-36 -504 l-5 -33 -141 0 -141 0 6 58 c4 31 14 158 22 282 9 124 18 230 20 236
3 10 143 9 233 -2z m350 -18 c1 -2 -8 -127 -20 -280 l-22 -276 -143 0 c-108 0
-143 3 -143 13 0 6 9 131 20 277 11 146 20 269 20 274 0 8 280 0 288 -8z m293
-15 c3 -3 0 -116 -7 -251 -7 -135 -13 -255 -13 -267 -1 -23 -2 -23 -152 -23
l-151 0 5 43 c4 23 13 139 22 257 9 118 18 225 21 236 4 21 7 22 136 17 73 -3
136 -8 139 -12z m356 -14 c1 -1 -4 -120 -10 -265 l-11 -262 -170 0 -169 0 7
148 c3 81 9 203 13 271 l6 124 166 -7 c91 -4 167 -8 168 -9z m282 -13 l34 -5
-7 -162 c-4 -89 -9 -204 -13 -254 l-6 -93 -150 0 -149 0 6 73 c3 39 8 155 12
257 3 102 8 188 10 191 4 7 208 1 263 -7z m249 -11 l84 -6 -6 -201 c-4 -111
-9 -222 -12 -248 l-6 -48 -140 0 -141 0 7 178 c3 97 9 212 12 255 l7 77 56 0
c31 0 94 -3 139 -7z m-1528 -535 c0 -39 -49 -701 -52 -703 -2 -1 -67 -5 -146
-8 l-142 -7 5 38 c3 20 14 163 25 317 11 154 23 304 26 333 l6 52 139 0 c137
0 139 0 139 -22z m300 0 c0 -13 -12 -174 -27 -359 l-27 -336 -135 -6 c-75 -3
-138 -3 -140 -1 -4 4 35 595 45 677 l6 47 139 0 c137 0 139 0 139 -22z m317
-55 c-4 -43 -12 -199 -18 -348 -6 -148 -14 -273 -18 -276 -3 -4 -77 -9 -164
-12 l-159 -6 6 47 c3 26 15 162 26 302 11 140 23 281 26 313 l7 57 150 0 150
0 -6 -77z m352 0 c0 -110 -25 -612 -30 -617 -2 -2 -80 -6 -173 -8 l-168 -3 6
75 c3 41 11 194 17 340 6 146 12 271 15 278 2 9 45 12 169 12 l165 0 -1 -77z
m317 0 c-3 -43 -11 -193 -16 -333 -6 -140 -13 -260 -15 -267 -3 -8 -48 -13
-150 -15 l-145 -3 0 25 c0 14 7 160 15 325 8 165 15 310 15 323 0 22 1 22 151
22 l151 0 -6 -77z m299 -110 c-4 -104 -10 -255 -14 -338 l-6 -150 -148 -3
-148 -3 5 43 c3 24 10 171 17 328 6 157 12 291 15 298 2 9 40 12 145 12 l141
0 -7 -187z m368 180 c5 -9 -24 -646 -30 -652 -2 -3 -80 -7 -174 -9 l-172 -5 6
84 c4 46 9 161 12 254 3 94 8 207 11 253 l6 82 168 0 c93 0 171 -3 173 -7z
m274 -720 c-4 -32 -12 -148 -18 -258 -7 -110 -15 -203 -18 -207 -3 -3 -66 -8
-140 -10 l-134 -3 7 160 c3 88 9 206 13 262 l6 102 56 4 c31 2 96 4 145 5 l89
2 -6 -57z m-315 -215 c-7 -144 -13 -262 -15 -263 -1 -1 -78 -5 -171 -8 l-169
-6 7 137 c3 75 9 194 13 264 l6 127 76 4 c42 1 119 4 171 5 l95 2 -13 -262z
m-356 20 c-4 -128 -10 -248 -13 -265 l-5 -33 -83 0 c-45 0 -110 -3 -145 -7
l-63 -6 7 139 c3 76 9 196 12 266 l7 127 86 4 c47 1 112 4 145 5 l59 2 -7
-232z m-302 165 c-3 -32 -9 -150 -14 -262 -5 -112 -11 -205 -12 -206 -2 -1
-68 -5 -147 -8 l-144 -7 7 193 c3 105 9 224 13 264 l6 72 86 4 c47 1 114 4
148 5 l61 2 -4 -57z m-318 -100 c-3 -82 -9 -201 -13 -265 l-6 -118 -67 0 c-37
0 -114 -3 -171 -6 l-104 -7 12 234 c6 129 12 248 12 266 l1 32 123 4 c67 1
144 4 171 5 l49 2 -7 -147z m-360 -20 c-3 -87 -9 -206 -13 -264 l-6 -106 -105
-7 c-184 -11 -232 -9 -232 12 0 9 9 125 20 257 11 132 20 243 20 247 0 4 60 9
133 11 72 1 145 4 161 5 l29 2 -7 -157z m-355 -141 c-10 -128 -21 -235 -23
-237 -2 -3 -64 -8 -136 -11 l-132 -7 1 34 c0 19 8 138 17 264 l17 230 135 5
135 5 3 -25 c1 -14 -6 -130 -17 -258z m-276 206 c-3 -40 -12 -158 -20 -261 -7
-104 -15 -190 -17 -193 -3 -2 -69 -7 -147 -11 l-142 -6 6 54 c8 73 35 433 35
458 0 19 7 21 128 24 70 1 135 4 145 5 16 2 17 -5 12 -70z m2242 -485 c-4 -49
-10 -138 -13 -200 -4 -61 -10 -117 -15 -124 -5 -9 -48 -15 -131 -19 -68 -3
-125 -5 -127 -3 -2 1 0 96 5 210 l9 208 115 6 c63 3 126 6 139 7 l24 2 -6 -87z
m-291 -15 c-3 -51 -9 -147 -12 -214 l-6 -121 -112 -6 c-61 -4 -137 -7 -169 -7
l-59 0 6 98 c3 53 8 150 12 214 l6 117 131 4 c73 1 149 4 171 5 l38 2 -6 -92z
m-361 -138 c-5 -142 -11 -213 -19 -215 -6 -2 -73 -6 -150 -9 l-138 -7 6 193
c4 106 9 205 12 220 l5 27 142 3 c78 2 144 2 146 1 2 -1 0 -97 -4 -213z m-309
100 c-3 -60 -9 -159 -12 -219 l-6 -109 -82 -6 c-44 -3 -110 -7 -145 -8 l-64
-2 3 100 c1 54 5 153 9 219 l6 120 135 5 c74 3 141 7 149 8 11 2 12 -18 7
-108z m-318 -130 c-6 -118 -11 -216 -12 -216 0 -1 -78 -5 -173 -9 l-172 -7 6
113 c3 63 8 164 12 224 l6 110 165 5 c91 3 168 3 172 0 4 -3 2 -102 -4 -220z
m-355 123 c-2 -49 -8 -149 -11 -223 l-7 -135 -173 -8 c-96 -5 -176 -7 -178 -4
-2 2 4 102 13 223 l18 219 45 6 c25 3 102 7 172 7 l127 2 -6 -87z m-356 30
c-4 -27 -12 -123 -18 -215 -7 -92 -16 -173 -20 -180 -6 -9 -47 -15 -131 -19
-68 -3 -125 -4 -128 -3 -4 2 24 443 29 451 4 6 61 10 160 12 l114 1 -6 -47z
m-291 -25 c-3 -35 -11 -138 -17 -229 l-12 -167 -139 -7 c-76 -4 -142 -5 -145
-1 -5 5 10 261 24 398 7 67 -2 64 182 66 l113 2 -6 -62z m990 -404 c-3 -26 -6
-89 -6 -140 l0 -94 -176 0 -177 0 7 127 c4 70 9 129 10 131 2 1 70 6 152 11
82 4 160 9 173 10 23 1 23 -1 17 -45z m-366 -51 c0 -43 -3 -102 -6 -130 l-7
-53 -179 0 -180 0 6 93 c9 124 14 147 34 148 22 2 246 15 295 17 l37 2 0 -77z
m-374 -25 c-4 -46 -9 -100 -12 -120 l-6 -38 -129 0 -129 0 0 33 c0 17 3 69 7
114 l6 82 86 4 c47 1 108 4 135 5 l48 2 -6 -82z m-283 31 c-1 -19 -5 -69 -8
-111 l-7 -78 -145 0 -145 0 7 103 c4 56 9 103 10 105 3 4 266 20 280 17 6 -1
9 -17 8 -36z m-696 -465 c-3 -3 -12 -4 -19 -1 -8 3 -5 6 6 6 11 1 17 -2 13 -5z"/>
<path d="M7816 5158 c20 -40 74 -152 119 -250 69 -148 80 -178 67 -182 -39
-11 -910 -109 -923 -104 -8 3 -77 115 -153 249 -158 276 -144 254 -152 247 -3
-4 58 -117 136 -253 78 -135 141 -248 139 -250 -8 -8 -1056 -128 -1070 -123
-9 3 -78 116 -154 249 -156 275 -143 254 -151 247 -3 -4 58 -117 136 -253 78
-135 140 -248 138 -250 -5 -5 -759 -95 -793 -95 -19 0 -48 43 -176 256 -84
141 -155 252 -156 247 -2 -6 64 -122 146 -259 82 -137 144 -250 138 -251 -7
-2 -165 -21 -352 -43 -187 -22 -352 -42 -366 -44 -23 -4 -35 9 -144 177 -65
100 -120 184 -122 186 -2 2 -6 2 -9 -2 -3 -3 47 -85 111 -182 64 -98 114 -179
112 -181 -2 -2 -140 -20 -307 -40 -251 -30 -305 -33 -315 -22 -7 7 -72 105
-145 218 -74 113 -135 207 -137 209 -2 2 -6 2 -9 -1 -3 -4 58 -103 137 -222
78 -119 140 -218 138 -220 -2 -1 -100 -14 -218 -27 l-214 -25 -149 228 c-83
125 -154 228 -159 228 -11 0 16 -42 368 -574 157 -235 283 -430 281 -432 -3
-2 -38 -7 -79 -10 -111 -10 -131 -25 -24 -18 50 3 97 7 106 10 10 3 34 -23 75
-83 32 -48 128 -184 212 -301 83 -118 152 -215 152 -216 0 -1 -64 -8 -142 -16
-137 -12 -219 -28 -157 -29 15 -1 90 6 169 15 163 18 142 27 211 -88 37 -61
128 -293 144 -365 l6 -31 -53 -6 c-29 -3 -69 -8 -88 -9 -19 -2 6 -5 56 -5 l92
-2 11 -65 c16 -89 30 -247 31 -327 l0 -68 -110 0 c-67 0 -110 -4 -110 -10 0
-6 44 -10 111 -10 l111 0 -7 -108 c-4 -59 -10 -136 -15 -172 -7 -62 -6 -79 5
-69 7 8 24 178 26 267 l2 83 225 -2 225 -1 -6 -112 c-4 -61 -9 -133 -13 -160
-5 -33 -4 -47 3 -43 6 4 16 74 23 157 l13 150 335 0 335 0 -7 -110 c-3 -60 -9
-131 -12 -157 -4 -35 -3 -44 5 -32 6 9 15 78 22 155 6 76 12 140 13 141 0 1
155 -1 344 -4 l344 -6 -7 -96 c-4 -53 -11 -125 -15 -161 -7 -62 -6 -79 5 -68
8 7 25 186 25 262 l0 69 242 -6 c133 -4 322 -7 421 -7 l180 0 -6 -122 c-4 -68
-9 -154 -12 -193 -4 -53 -3 -63 5 -41 5 16 14 102 20 190 6 88 13 162 14 163
2 2 245 0 540 -4 l537 -6 -5 -26 c-10 -56 -16 -206 -7 -184 5 11 13 65 17 118
l7 96 63 -2 c35 -1 67 1 71 4 3 4 -25 7 -63 7 l-69 0 -1 228 c-1 303 -21 451
-96 702 -48 163 -87 248 -174 387 -39 63 -62 108 -56 112 6 4 116 17 244 30
128 13 237 28 243 33 13 11 8 11 -258 -18 -131 -14 -244 -24 -251 -21 -9 4
-218 336 -347 552 l-18 31 417 43 c229 23 420 45 424 49 12 13 -150 449 -214
575 -11 22 -17 45 -15 51 3 8 49 17 124 25 138 15 173 21 173 30 0 4 -64 -1
-142 -10 -79 -10 -150 -18 -158 -19 -10 0 -32 36 -62 103 -93 204 -190 397
-199 397 -5 0 7 -32 27 -72z m273 -593 c62 -144 142 -351 166 -433 12 -40 12
-42 -8 -47 -12 -2 -184 -20 -382 -40 -198 -20 -376 -38 -396 -41 l-36 -5 -108
183 c-193 326 -244 418 -232 419 7 0 208 24 447 53 239 30 447 54 461 55 24 1
30 -9 88 -144z m-968 -68 c30 -50 106 -182 171 -291 65 -109 116 -201 114
-203 -2 -3 -22 -7 -43 -9 -71 -9 -1016 -104 -1029 -104 -7 0 -64 87 -127 193
-189 318 -227 387 -214 388 7 0 248 28 537 63 289 34 528 61 532 59 4 -2 30
-45 59 -96z m-1127 -80 c15 -28 91 -159 168 -290 77 -131 139 -239 137 -241
-2 -1 -177 -19 -389 -40 -212 -21 -392 -40 -400 -42 -11 -3 -65 76 -189 277
-95 154 -170 283 -168 285 3 3 184 27 403 54 220 26 401 48 404 49 3 0 18 -23
34 -52z m-838 -94 c15 -27 92 -153 171 -282 79 -128 143 -235 141 -237 -2 -2
-167 -20 -367 -41 -313 -32 -364 -35 -372 -22 -4 7 -87 131 -182 274 -132 197
-171 261 -158 264 12 3 672 84 728 90 6 0 24 -20 39 -46z m-614 -328 c95 -143
174 -262 176 -266 1 -3 -123 -17 -275 -33 -153 -15 -294 -30 -313 -33 l-36 -5
-177 267 c-98 147 -175 270 -172 273 4 4 140 23 303 43 211 25 300 32 309 25
6 -6 89 -128 185 -271z m-649 -62 c98 -146 175 -268 173 -271 -3 -3 -101 -15
-217 -26 l-211 -22 -23 31 c-76 101 -334 500 -325 503 12 4 377 50 405 50 15
1 62 -61 198 -265z m3710 -244 c98 -160 177 -292 175 -293 -2 -2 -226 -26
-498 -55 -272 -28 -516 -54 -541 -58 -44 -5 -47 -4 -66 28 -11 19 -51 84 -88
144 -38 61 -110 178 -161 262 l-93 152 32 6 c18 3 232 25 477 50 245 24 459
46 475 48 17 2 48 5 70 5 l40 1 178 -290z m-1276 159 c6 -13 86 -144 177 -292
91 -148 166 -272 166 -275 0 -4 -165 -24 -367 -45 -203 -21 -379 -40 -393 -42
-23 -4 -39 16 -200 267 -182 282 -204 318 -198 325 4 3 721 81 774 83 23 1 34
-5 41 -21z m-712 -268 c65 -102 149 -231 187 -287 38 -57 67 -103 65 -103 -1
0 -149 -16 -327 -35 -179 -19 -337 -35 -351 -35 -28 0 -55 36 -322 420 l-115
165 36 8 c21 4 183 22 362 40 231 24 328 30 336 23 6 -6 64 -94 129 -196z
m-850 82 c31 -49 321 -465 361 -518 l24 -31 -311 -33 c-184 -20 -313 -29 -318
-24 -35 38 -415 584 -410 588 4 3 554 62 604 65 14 1 30 -14 50 -47z m-539
-219 c76 -109 169 -240 206 -292 37 -51 68 -97 68 -101 0 -6 -130 -21 -385
-46 l-50 -5 -55 78 c-30 43 -123 176 -208 297 -84 120 -152 220 -150 222 5 4
342 41 395 43 l41 1 138 -197z m3631 -161 c88 -140 127 -220 173 -362 38 -119
86 -317 79 -325 -6 -5 -1090 -38 -1095 -33 -2 3 -13 40 -25 83 -29 113 -87
282 -116 340 -14 27 -57 101 -95 163 -39 62 -69 114 -67 116 2 1 168 20 369
41 201 21 435 46 520 55 85 10 164 18 175 19 15 1 36 -24 82 -97z m-1101 -129
c37 -60 82 -137 100 -173 50 -98 145 -402 131 -417 -5 -5 -316 -16 -686 -25
l-134 -3 -24 90 c-56 215 -105 334 -189 462 -30 47 -54 87 -52 88 3 3 719 82
760 84 23 1 35 -12 94 -106z m-820 -66 c29 -45 63 -105 77 -133 32 -63 89
-227 111 -319 10 -38 19 -77 22 -86 4 -15 -22 -17 -238 -23 -134 -3 -291 -9
-350 -12 -96 -6 -108 -5 -108 10 0 28 -70 237 -106 314 -18 40 -63 116 -99
168 -36 51 -62 94 -58 95 5 0 141 15 303 33 162 19 318 34 345 35 l50 1 51
-83z m-729 -54 c78 -109 110 -163 141 -243 25 -64 92 -263 92 -274 0 -2 -96
-6 -212 -10 -117 -3 -268 -9 -335 -12 l-122 -6 -11 43 c-42 168 -114 344 -180
440 -22 32 -39 59 -38 60 4 0 588 66 605 68 6 1 33 -29 60 -66z m-647 -60 c23
-32 55 -87 72 -123 34 -70 103 -268 113 -323 l7 -34 -153 -6 c-230 -10 -299
-9 -303 6 -11 45 -82 252 -104 302 -14 33 -43 86 -64 117 -21 31 -38 61 -38
65 0 7 298 45 407 52 16 1 33 -14 63 -56z m3569 -524 c6 -63 11 -202 11 -309
l0 -193 -167 6 c-91 4 -334 7 -540 7 l-373 0 0 83 c0 110 -17 326 -33 419
l-13 77 80 5 c136 10 1011 32 1017 26 4 -3 12 -57 18 -121z m-1120 24 c20
-120 31 -255 31 -380 l0 -123 -413 0 -413 0 -12 208 c-6 114 -17 235 -23 270
-6 35 -10 65 -8 67 4 4 518 21 716 23 l111 2 11 -67z m-854 25 c15 -67 26
-183 32 -347 l6 -184 -24 6 c-13 4 -168 7 -345 7 l-321 0 -6 168 c-3 92 -13
207 -22 256 -8 49 -14 90 -13 91 2 2 147 7 323 12 176 5 330 10 342 11 16 2
24 -5 28 -20z m-696 -83 c7 -38 15 -153 18 -254 l6 -184 -123 6 c-68 4 -218 7
-335 7 l-212 0 -6 168 c-4 92 -13 200 -20 240 -10 52 -10 75 -3 77 19 6 651
20 657 15 3 -3 12 -36 18 -75z m-689 -7 c6 -35 14 -143 17 -241 l6 -179 -224
4 -224 3 -7 155 c-4 85 -13 190 -20 232 l-14 77 60 4 c34 2 136 4 227 5 l167
2 12 -62z"/>
</g>
</svg>
